<svg width="1235" height="216" viewBox="0 0 1235 216" fill="none" xmlns="http://www.w3.org/2000/svg">
<path d="M175.336 68.728C175.144 59.512 173.32 51.352 169.864 44.248C166.6 36.952 162.088 30.904 156.328 26.104C150.76 21.304 144.136 17.656 136.456 15.16C128.968 12.664 120.808 11.416 111.976 11.416C96.424 11.416 82.504 14.872 70.216 21.784C57.928 28.696 47.56 37.72 39.112 48.856C30.664 59.992 24.136 72.664 19.528 86.872C15.112 101.08 12.904 115.384 12.904 129.784C12.904 142.456 14.632 153.496 18.088 162.904C21.544 172.312 26.44 180.184 32.776 186.52C39.112 192.664 46.6 197.272 55.24 200.344C63.88 203.416 73.384 204.952 83.752 204.952C93.352 204.952 102.472 203.32 111.112 200.056C119.944 196.6 127.912 191.896 135.016 185.944C142.312 179.992 148.456 173.08 153.448 165.208C158.632 157.336 162.376 148.792 164.68 139.576H177.352C175.048 150.52 170.92 160.696 164.968 170.104C159.016 179.512 151.72 187.576 143.08 194.296C134.632 201.016 125.224 206.296 114.856 210.136C104.488 213.976 93.736 215.896 82.6 215.896C72.424 215.896 62.344 214.36 52.36 211.288C42.568 208.408 33.736 203.512 25.864 196.6C18.184 189.688 11.944 180.76 7.144 169.816C2.536 158.68 0.232 145.048 0.232 128.92C0.232 119.128 1.288 109.144 3.4 98.968C5.512 88.792 8.68 79 12.904 69.592C17.128 59.992 22.312 51.064 28.456 42.808C34.792 34.36 42.088 27.064 50.344 20.92C58.6 14.584 67.816 9.592 77.992 5.944C88.36 2.296 99.592 0.471998 111.688 0.471998C123.592 0.471998 134.248 2.10399 143.656 5.36799C153.256 8.63199 161.32 13.336 167.848 19.48C174.568 25.432 179.656 32.632 183.112 41.08C186.568 49.336 188.2 58.552 188.008 68.728H175.336ZM241.605 103.864H295.173C310.725 104.056 322.053 100.888 329.157 94.36C336.453 87.832 340.101 78.424 340.101 66.136C340.101 53.848 336.453 44.536 329.157 38.2C322.053 31.672 310.725 28.408 295.173 28.408H241.605V103.864ZM214.245 5.36799H304.389C325.125 5.36799 340.773 10.744 351.333 21.496C362.085 32.056 367.461 46.936 367.461 66.136C367.461 85.336 362.085 100.312 351.333 111.064C340.773 121.816 325.125 127.096 304.389 126.904H241.605V211H214.245V5.36799ZM400.995 5.36799H428.355V187.96H537.219V211H400.995V5.36799ZM596.451 126.04H666.147L631.875 30.136H631.299L596.451 126.04ZM616.899 5.36799H647.139L727.491 211H697.25L674.787 149.08H587.811L564.771 211H536.834L616.899 5.36799ZM747.489 5.36799H776.577L884.865 172.12H885.441V5.36799H911.361V211H881.409L773.985 45.976H773.409V211H747.489V5.36799ZM955.62 5.36799H1097.6V28.408H982.98V93.784H1089.83V116.824H982.98V187.96H1098.47V211H955.62V5.36799ZM1178.34 28.408H1109.79V5.36799H1274.24V28.408H1205.7V211H1178.34V28.408Z" fill="white"/>
</svg>
