<svg width="145" height="25" viewBox="0 0 145 25" fill="none" xmlns="http://www.w3.org/2000/svg">
<path d="M18.84 8.384C18.7973 6.44267 18.2 4.98133 17.048 4C15.9173 3.01867 14.392 2.528 12.472 2.528C10.744 2.528 9.24 2.89067 7.96 3.616C6.70133 4.32 5.64533 5.25867 4.792 6.432C3.93867 7.584 3.29867 8.90667 2.872 10.4C2.46667 11.872 2.264 13.3867 2.264 14.944C2.264 16.1173 2.43467 17.1733 2.776 18.112C3.11733 19.0507 3.608 19.8613 4.248 20.544C4.90933 21.2053 5.70933 21.7173 6.648 22.08C7.58667 22.4427 8.64267 22.624 9.816 22.624C10.712 22.624 11.5653 22.4747 12.376 22.176C13.208 21.8773 13.9547 21.4507 14.616 20.896C15.2987 20.3413 15.8853 19.6693 16.376 18.88C16.888 18.0693 17.2827 17.1733 17.56 16.192H19.736C19.48 17.3653 19.0747 18.464 18.52 19.488C17.9653 20.4907 17.2613 21.3653 16.408 22.112C15.5547 22.8373 14.552 23.4133 13.4 23.84C12.248 24.2453 10.936 24.448 9.464 24.448C7.97067 24.448 6.63733 24.2133 5.464 23.744C4.312 23.2747 3.33067 22.624 2.52 21.792C1.73067 20.9387 1.12267 19.9147 0.696 18.72C0.290667 17.5253 0.0880001 16.2027 0.0880001 14.752C0.0880001 12.9173 0.365333 11.1573 0.92 9.472C1.47467 7.78667 2.28533 6.29333 3.352 4.992C4.41867 3.66933 5.72 2.624 7.256 1.856C8.792 1.06667 10.5413 0.671999 12.504 0.671999C13.6987 0.671999 14.808 0.842665 15.832 1.184C16.8773 1.504 17.7733 1.984 18.52 2.624C19.288 3.264 19.8853 4.064 20.312 5.024C20.76 5.984 20.9947 7.104 21.016 8.384H18.84ZM23.9633 1.152H34.0433C35.6646 1.152 36.9873 1.38667 38.0113 1.856C39.0353 2.32533 39.8246 2.912 40.3793 3.616C40.9339 4.32 41.3073 5.088 41.4993 5.92C41.7126 6.752 41.8193 7.52 41.8193 8.224C41.8193 8.928 41.7126 9.696 41.4993 10.528C41.3073 11.3387 40.9339 12.096 40.3793 12.8C39.8246 13.504 39.0353 14.0907 38.0113 14.56C36.9873 15.008 35.6646 15.232 34.0433 15.232H27.9633V24H23.9633V1.152ZM27.9633 11.968H33.8193C34.2673 11.968 34.7259 11.904 35.1953 11.776C35.6646 11.648 36.0913 11.4453 36.4753 11.168C36.8806 10.8693 37.2006 10.4853 37.4353 10.016C37.6913 9.52533 37.8193 8.91733 37.8193 8.192C37.8193 7.44533 37.7126 6.82667 37.4993 6.336C37.2859 5.84533 36.9979 5.46133 36.6353 5.184C36.2726 4.88533 35.8566 4.68266 35.3873 4.576C34.9179 4.46933 34.4166 4.416 33.8833 4.416H27.9633V11.968ZM45.307 1.152H49.307V20.544H60.923V24H45.307V1.152ZM69.794 1.152H74.05L82.85 24H78.562L76.418 17.952H67.298L65.154 24H61.026L69.794 1.152ZM68.386 14.912H75.362L71.938 5.088H71.842L68.386 14.912ZM84.8658 1.152H89.0898L99.5218 17.984H99.5858V1.152H103.394V24H99.1698L88.7698 7.2H88.6738V24H84.8658V1.152ZM108.12 1.152H124.568V4.608H112.12V10.592H123.64V13.856H112.12V20.544H124.792V24H108.12V1.152ZM126.1 1.152H144.596V4.608H137.332V24H133.332V4.608H126.1V1.152Z" fill="white"/>
</svg>
