<svg width="40" height="42" viewBox="0 0 40 42" fill="none" xmlns="http://www.w3.org/2000/svg">
<path d="M34.3662 21.0001C34.3662 29.1377 27.9342 35.7346 20 35.7346C12.0658 35.7346 5.63379 29.1377 5.63379 21.0001C5.63379 12.8624 12.0658 6.2655 20 6.2655C27.9342 6.2655 34.3662 12.8624 34.3662 21.0001Z" stroke="#59E692" stroke-width="2" stroke-linecap="round" stroke-linejoin="round"/>
<path d="M24.2253 16.6663C24.2253 19.2193 22.2075 21.2889 19.7183 21.2889C17.2291 21.2889 15.2112 19.2193 15.2112 16.6663C15.2112 14.1133 17.2291 12.0437 19.7183 12.0437C22.2075 12.0437 24.2253 14.1133 24.2253 16.6663Z" stroke="#59E692" stroke-width="2" stroke-linecap="round" stroke-linejoin="round"/>
<path d="M10.1409 31.112C12.4272 28.2871 15.869 26.4894 19.7183 26.4894C23.5677 26.4894 27.0095 28.2871 29.2958 31.112" stroke="#59E692" stroke-width="2" stroke-linecap="round" stroke-linejoin="round"/>
</svg>
