<svg width="40" height="40" viewBox="0 0 40 40" fill="none" xmlns="http://www.w3.org/2000/svg">
<path d="M9.63616 32.0834H22.0305C22.9714 32.0834 23.7117 31.3028 23.5242 30.3809C23.0066 27.8354 21.3162 23.3334 15.8333 23.3334C10.3505 23.3334 8.66009 27.8354 8.14249 30.3809C7.95502 31.3028 8.69532 32.0834 9.63616 32.0834Z" stroke="#59E692" stroke-width="2" stroke-linecap="round" stroke-linejoin="round"/>
<path d="M26.25 23.3334C29.7146 23.3334 31.1337 26.9132 31.7065 29.4933C32.0159 30.8868 30.8889 32.0834 29.4615 32.0834H27.9167" stroke="#59E692" stroke-width="2" stroke-linecap="round" stroke-linejoin="round"/>
<path d="M20.4167 12.5C20.4167 15.0313 18.3646 17.0833 15.8333 17.0833C13.302 17.0833 11.25 15.0313 11.25 12.5C11.25 9.96865 13.302 7.91663 15.8333 7.91663C18.3646 7.91663 20.4167 9.96865 20.4167 12.5Z" stroke="#59E692" stroke-width="2" stroke-linecap="round" stroke-linejoin="round"/>
<path d="M24.5833 17.0833C27.1146 17.0833 28.75 15.0313 28.75 12.5C28.75 9.96865 27.1146 7.91663 24.5833 7.91663" stroke="#59E692" stroke-width="2" stroke-linecap="round" stroke-linejoin="round"/>
</svg>
