<?xml version="1.0" standalone="no"?>
<!DOCTYPE svg PUBLIC "-//W3C//DTD SVG 20010904//EN"
 "http://www.w3.org/TR/2001/REC-SVG-20010904/DTD/svg10.dtd">
<svg version="1.0" xmlns="http://www.w3.org/2000/svg"
 width="225.000000pt" height="225.000000pt" viewBox="0 0 225.000000 225.000000"
 preserveAspectRatio="xMidYMid meet">

<g transform="translate(0.000000,225.000000) scale(0.100000,-0.100000)"
fill="#000000" stroke="none">
<path d="M0 1125 l0 -1125 1125 0 1125 0 0 1125 0 1125 -1125 0 -1125 0 0
-1125z m1776 241 c100 -47 163 -135 172 -242 9 -116 -53 -225 -162 -282 -43
-22 -64 -27 -132 -27 -70 0 -88 4 -139 30 -66 34 -125 101 -144 165 -20 68
-14 160 15 218 31 61 99 125 157 146 68 24 173 20 233 -8z m-1150 -11 c138
-41 215 -173 184 -319 -15 -73 -60 -133 -130 -171 -53 -29 -60 -30 -207 -33
l-153 -4 0 271 0 271 128 0 c84 0 146 -5 178 -15z m625 -257 l107 -268 -58 0
-58 0 -23 65 -23 65 -111 0 -111 0 -24 -65 -24 -65 -57 0 -57 0 111 270 111
271 55 -3 55 -3 107 -267z"/>
<path d="M1574 1271 c-65 -30 -98 -81 -102 -160 -3 -59 0 -71 25 -109 29 -44
106 -92 147 -92 103 0 196 91 196 190 0 45 -21 104 -48 133 -50 55 -144 72
-218 38z"/>
<path d="M420 1100 l0 -170 78 0 c127 1 188 41 202 133 10 70 -3 117 -43 153
-42 39 -91 54 -174 54 l-63 0 0 -170z"/>
<path d="M1052 1149 c-18 -44 -32 -84 -32 -90 0 -5 29 -9 65 -9 36 0 65 4 65
10 0 9 -59 162 -64 168 -2 1 -17 -34 -34 -79z"/>
</g>
</svg>
