<svg xmlns="http://www.w3.org/2000/svg" width="256" height="256" viewBox="0 0 256 256" fill="none">
<g clip-path="url(#clip0_747_71)">
<rect width="256" height="256" fill="white"/>
<path d="M198.994 130.857C167.745 175.793 156.15 133.972 137.316 133.972C129.942 133.972 128 140.098 128 142.79C128 140.098 126.067 133.972 118.693 133.972C99.8503 133.972 88.2641 175.793 57.0059 130.857C56.4043 180.137 101.938 191.835 127.991 160.962C154.062 191.789 199.596 180.137 198.994 130.857Z" fill="#7A818B"/>
<path fill-rule="evenodd" clip-rule="evenodd" d="M167.158 126.143C179.515 126.143 189.533 115.59 189.533 102.571C189.533 89.5533 179.515 79 167.158 79C154.8 79 144.782 89.5533 144.782 102.571C144.782 115.59 154.8 126.143 167.158 126.143ZM167.158 122.312C177.507 122.312 185.897 113.474 185.897 102.571C185.897 91.6687 177.507 82.8304 167.158 82.8304C156.808 82.8304 148.418 91.6687 148.418 102.571C148.418 113.474 156.808 122.312 167.158 122.312Z" fill="#7A818B"/>
<path d="M148.558 114.357C150.468 114.357 149.621 111.653 148.996 109.855C147.97 106.906 148.388 104.212 146.924 101.774C142.959 95.1704 135.966 90.7857 128 90.7857C119.79 90.7857 112.612 95.4439 108.719 102.388C107.515 104.536 107.454 107.325 106.817 109.775C106.337 111.619 105.53 114.357 107.442 114.357C108.446 114.357 108.325 113.495 108.421 112.442C108.535 111.191 109.687 109.975 110.012 108.803C112.29 100.604 119.481 94.6161 128 94.6161C136.555 94.6161 143.772 100.656 146.017 108.908C146.327 110.048 147.468 110.197 147.579 111.411C147.675 112.464 147.554 114.357 148.558 114.357Z" fill="#7A818B"/>
<path fill-rule="evenodd" clip-rule="evenodd" d="M88.8424 126.143C101.2 126.143 111.218 115.59 111.218 102.571C111.218 89.5533 101.2 79 88.8424 79C76.4846 79 66.4667 89.5533 66.4667 102.571C66.4667 115.59 76.4846 126.143 88.8424 126.143ZM88.8424 122.312C99.1921 122.312 107.582 113.474 107.582 102.571C107.582 91.6687 99.1921 82.8304 88.8424 82.8304C78.4928 82.8304 70.1027 91.6687 70.1027 102.571C70.1027 113.474 78.4928 122.312 88.8424 122.312Z" fill="#7A818B"/>
</g>
<defs>
<clipPath id="clip0_747_71">
<rect width="256" height="256" fill="white"/>
</clipPath>
</defs>
</svg>